<svg xmlns="http://www.w3.org/2000/svg" width="520" height="104" viewBox="0 0 520 104" role="img" aria-labelledby="title desc">
  <title id="title">Reader submission to 科技爱好者周刊</title>
  <desc id="desc">An editorial badge showing a small stack of weekly publication pages.</desc>
  <defs>
    <clipPath id="frame"><rect width="520" height="104" rx="14"/></clipPath>
  </defs>

  <g clip-path="url(#frame)">
    <rect width="520" height="104" fill="#F7F4ED"/>
    <rect width="5" height="104" fill="#D65735"/>

    <text x="27" y="28" fill="#77736B" font-family="ui-sans-serif, -apple-system, BlinkMacSystemFont, 'Segoe UI', sans-serif" font-size="9" font-weight="750" letter-spacing="1.55">READER SUBMISSION · OPEN SOURCE</text>
    <text x="25" y="59" fill="#20211E" font-family="ui-sans-serif, -apple-system, BlinkMacSystemFont, 'PingFang SC', 'Microsoft YaHei', sans-serif" font-size="23" font-weight="780">科技爱好者周刊</text>
    <path d="M26 68H84" stroke="#D65735" stroke-width="3"/>
    <text x="26" y="87" fill="#7F7B73" font-family="ui-monospace, SFMono-Regular, Menlo, monospace" font-size="8.5" font-weight="650" letter-spacing="0.75">EVERY FRIDAY  ·  RUANYF / WEEKLY</text>

    <g transform="translate(371 13)">
      <g transform="translate(25 8) rotate(5 49 36)">
        <rect x="0.5" y="0.5" width="97" height="71" rx="4.5" fill="#DED8CC" stroke="#C8C1B4"/>
      </g>
      <g transform="translate(12 7) rotate(-3 49 36)">
        <rect x="0.5" y="0.5" width="97" height="71" rx="4.5" fill="#ECE7DC" stroke="#CEC7BA"/>
        <path d="M12 16H59M12 24H79M12 32H68" stroke="#B9B2A7" stroke-width="2"/>
      </g>
      <g>
        <rect x="0.5" y="0.5" width="97" height="71" rx="4.5" fill="#FFFDF8" stroke="#BDB6A9"/>
        <rect x="0" y="0" width="98" height="7" rx="4" fill="#D65735"/>
        <text x="10" y="24" fill="#262723" font-family="ui-serif, Georgia, serif" font-size="12" font-weight="800" letter-spacing="0.4">WEEKLY</text>
        <text x="87" y="23" text-anchor="end" fill="#918B80" font-family="ui-monospace, SFMono-Regular, Menlo, monospace" font-size="6.5" font-weight="700">FRI.</text>
        <path d="M10 32H88" stroke="#D8D2C7"/>
        <path d="M10 40H42M10 47H42M10 54H42M10 61H34" stroke="#979187" stroke-width="1.5"/>
        <rect x="51" y="40" width="37" height="21" rx="2" fill="#EEE9DE"/>
        <path d="M56 55L63 49L68 53L76 45L83 51" fill="none" stroke="#D65735" stroke-width="1.5" stroke-linecap="round" stroke-linejoin="round"/>
      </g>
    </g>

    <circle cx="493" cy="23" r="13" fill="#FFFDF8" stroke="#C8C1B4"/>
    <path d="M488.5 27.5L497.5 18.5M491 18.5H497.5V25" fill="none" stroke="#30312D" stroke-width="1.5" stroke-linecap="round" stroke-linejoin="round"/>
  </g>

  <rect x="0.5" y="0.5" width="519" height="103" rx="13.5" fill="none" stroke="#D4CFC4"/>
</svg>
